<svg width="13" height="8" viewBox="0 0 13 8" fill="none" xmlns="http://www.w3.org/2000/svg">
<g clip-path="url(#clip0_343_796)">
<path d="M7.0106 7.21L12.0106 2.21C12.1038 2.11676 12.1778 2.00607 12.2283 1.88425C12.2787 1.76243 12.3047 1.63186 12.3047 1.5C12.3047 1.2337 12.1989 0.978304 12.0106 0.79C11.9174 0.696761 11.8067 0.6228 11.6848 0.57234C11.563 0.52188 11.4325 0.495909 11.3006 0.495909C11.0343 0.495909 10.7789 0.601696 10.5906 0.79L6.3006 5.09L2.0106 0.79C1.91763 0.696271 1.80703 0.621877 1.68517 0.571108C1.56331 0.52034 1.43261 0.494201 1.3006 0.494201C1.16858 0.494201 1.03788 0.52034 0.916019 0.571108C0.79416 0.621877 0.68356 0.696271 0.590597 0.789999C0.496869 0.882962 0.422473 0.993563 0.371704 1.11542C0.320935 1.23728 0.294798 1.36799 0.294798 1.5C0.294798 1.63201 0.320935 1.76272 0.371704 1.88458C0.422473 2.00644 0.496869 2.11704 0.590597 2.21L5.5906 7.21C5.68356 7.30373 5.79416 7.37812 5.91602 7.42889C6.03788 7.47966 6.16858 7.5058 6.3006 7.5058C6.43261 7.5058 6.56331 7.47966 6.68517 7.42889C6.80703 7.37812 6.91763 7.30373 7.0106 7.21Z" fill="#FE7563"/>
</g>
<defs>
<clipPath id="clip0_343_796">
<rect width="12.0099" height="7.0116" fill="white" transform="translate(0.294922 0.494202)"/>
</clipPath>
</defs>
</svg>
