<svg width="297" height="94" viewBox="0 0 297 94" fill="none" xmlns="http://www.w3.org/2000/svg">
<g clip-path="url(#clip0_427_1425)">
<rect width="296.295" height="94" fill="#4B4BFB"/>
<path d="M36.8641 81.456H22.9587V16.1401H53.5113C67.7104 16.1401 75.4465 25.7368 75.4465 37.194C75.4465 48.5533 67.6125 58.2478 53.5113 58.2478H36.8641V81.456ZM51.6507 46.0072C57.1345 46.0072 61.2474 42.5798 61.2474 37.194C61.2474 31.7102 57.1345 28.3807 51.6507 28.3807H36.8641V46.0072H51.6507Z" fill="white"/>
<path d="M189.983 82.6313C177.448 82.6313 168.439 78.4206 162.368 72.2513L169.908 61.6754C174.51 66.4737 181.659 70.4887 190.668 70.4887C198.306 70.4887 202.027 66.9634 202.027 63.2422C202.027 51.6871 164.424 59.619 164.424 35.0399C164.424 24.1702 173.825 15.1611 189.199 15.1611C199.579 15.1611 208.197 18.2947 214.66 24.2681L206.924 34.4523C201.636 29.5561 194.585 27.3038 187.926 27.3038C181.953 27.3038 178.623 29.9478 178.623 33.8648C178.623 44.2448 216.129 37.2921 216.129 61.6754C216.129 73.6223 207.609 82.6313 189.983 82.6313Z" fill="white"/>
<path d="M266.466 81.456H252.463V28.3807H233.368V16.1401H285.464V28.3807H266.466V81.456Z" fill="white"/>
<path fill-rule="evenodd" clip-rule="evenodd" d="M142.984 81.6728H94.9012V70.8433H142.984V81.6728Z" fill="#FCD139"/>
<path fill-rule="evenodd" clip-rule="evenodd" d="M118.943 50.2672C125.283 50.2672 130.422 45.1277 130.422 38.7879C130.422 32.4481 125.283 27.3086 118.943 27.3086C112.603 27.3086 107.463 32.4481 107.463 38.7879C107.463 45.1277 112.603 50.2672 118.943 50.2672ZM118.943 61.963C131.742 61.963 142.118 51.5872 142.118 38.7879C142.118 25.9886 131.742 15.6128 118.943 15.6128C106.143 15.6128 95.7676 25.9886 95.7676 38.7879C95.7676 51.5872 106.143 61.963 118.943 61.963Z" fill="#FE7563"/>
</g>
<defs>
<clipPath id="clip0_427_1425">
<rect width="296.295" height="94" fill="white"/>
</clipPath>
</defs>
</svg>
