<svg width="650" height="210" viewBox="0 0 650 210" fill="none" xmlns="http://www.w3.org/2000/svg">
<g clip-path="url(#clip0_343_1012)">
<path fill-rule="evenodd" clip-rule="evenodd" d="M523.665 161.08L523.665 72.4858L544.407 72.4858L544.407 161.08L523.665 161.08Z" fill="#FCD139"/>
<path fill-rule="evenodd" clip-rule="evenodd" d="M583.935 116.783C583.935 128.443 593.71 137.896 605.768 137.896C617.825 137.896 627.6 128.443 627.6 116.783C627.6 105.122 617.825 95.6693 605.768 95.6693C593.71 95.6693 583.935 105.122 583.935 116.783ZM561.691 116.783C561.691 140.324 581.425 159.408 605.768 159.408C630.11 159.408 649.844 140.324 649.844 116.783C649.844 93.2415 630.11 74.1575 605.768 74.1575C581.425 74.1575 561.691 93.2415 561.691 116.783Z" fill="#FE7563"/>
<path d="M32.59 158H12.4873V43.3973H62.83C86.8845 43.3973 100.286 59.8918 100.286 79.3073C100.286 98.7227 86.7127 115.217 62.83 115.217H32.59V158ZM60.0809 97.52C71.4209 97.52 79.6682 90.3036 79.6682 79.3073C79.6682 68.3109 71.4209 61.0945 60.0809 61.0945H32.59V97.52H60.0809ZM151.445 160.062C125.157 160.062 108.834 140.303 108.834 116.42C108.834 92.7091 125.157 72.95 151.445 72.95C178.077 72.95 194.228 92.7091 194.228 116.42C194.228 140.303 178.077 160.062 151.445 160.062ZM151.445 144.083C166.909 144.083 175.5 131.196 175.5 116.42C175.5 101.815 166.909 88.9291 151.445 88.9291C136.153 88.9291 127.562 101.815 127.562 116.42C127.562 131.196 136.153 144.083 151.445 144.083ZM230.523 158H212.482V75.0118H230.523V87.2109C236.709 79.3073 246.674 73.1218 257.499 73.1218V90.9909C255.952 90.6473 254.062 90.4755 251.829 90.4755C244.269 90.4755 234.131 95.63 230.523 101.472V158ZM296.962 160.062C283.045 160.062 275.656 152.502 275.656 138.756V90.8191H261.911V75.0118H275.656V52.3318H293.697V75.0118H310.535V90.8191H293.697V134.289C293.697 139.959 296.446 144.083 301.601 144.083C305.037 144.083 308.302 142.708 309.676 141.162L313.972 154.735C310.707 157.828 305.381 160.062 296.962 160.062ZM349.252 158H331.211V90.8191H317.466V75.0118H331.211V70.3727C331.211 52.3318 341.692 41.6791 357.5 41.6791C364.888 41.6791 372.276 43.5691 377.43 48.8954L370.386 60.0636C367.98 57.83 364.888 56.4555 360.764 56.4555C353.72 56.4555 349.252 61.0945 349.252 70.3727V75.0118H366.09V90.8191H349.252V158ZM417.226 160.062C390.938 160.062 374.616 140.303 374.616 116.42C374.616 92.7091 390.938 72.95 417.226 72.95C443.858 72.95 460.009 92.7091 460.009 116.42C460.009 140.303 443.858 160.062 417.226 160.062ZM417.226 144.083C432.69 144.083 441.281 131.196 441.281 116.42C441.281 101.815 432.69 88.9291 417.226 88.9291C401.935 88.9291 393.344 101.815 393.344 116.42C393.344 131.196 401.935 144.083 417.226 144.083ZM496.304 158H478.264V43.3973H496.304V158Z" fill="#4B4BFB"/>
</g>
<defs>
<clipPath id="clip0_343_1012">
<rect width="649.687" height="210" fill="white" transform="translate(0.15625)"/>
</clipPath>
</defs>
</svg>
