<svg width="20" height="20" viewBox="0 0 20 20" fill="none" xmlns="http://www.w3.org/2000/svg">
<g clip-path="url(#clip0_427_1427)">
<path fill-rule="evenodd" clip-rule="evenodd" d="M8.80409 0.445801C7.44868 0.445916 6.11295 0.770165 4.90834 1.39149C3.70374 2.01282 2.66518 2.91322 1.87932 4.01755C1.09347 5.12189 0.583096 6.39815 0.390795 7.73984C0.198493 9.08154 0.329836 10.4498 0.773865 11.7304C1.21789 13.011 1.96173 14.1669 2.94332 15.1015C3.92491 16.0362 5.11579 16.7226 6.4166 17.1034C7.71741 17.4842 9.09043 17.5484 10.4211 17.2907C11.7518 17.033 13.0015 16.4608 14.0661 15.6218L17.7181 19.2738C17.9067 19.456 18.1593 19.5568 18.4215 19.5545C18.6837 19.5522 18.9345 19.447 19.1199 19.2616C19.3053 19.0762 19.4105 18.8254 19.4128 18.5632C19.415 18.301 19.3142 18.0484 19.1321 17.8598L15.4801 14.2078C16.4681 12.9544 17.0832 11.4482 17.2552 9.86153C17.4271 8.27485 17.1489 6.67182 16.4523 5.23589C15.7557 3.79997 14.669 2.58916 13.3164 1.74203C11.9638 0.894907 10.4001 0.445694 8.80409 0.445801ZM2.30409 8.9458C2.30409 7.22189 2.98891 5.56859 4.20789 4.34961C5.42688 3.13062 7.08018 2.4458 8.80409 2.4458C10.528 2.4458 12.1813 3.13062 13.4003 4.34961C14.6193 5.56859 15.3041 7.22189 15.3041 8.9458C15.3041 10.6697 14.6193 12.323 13.4003 13.542C12.1813 14.761 10.528 15.4458 8.80409 15.4458C7.08018 15.4458 5.42688 14.761 4.20789 13.542C2.98891 12.323 2.30409 10.6697 2.30409 8.9458Z" fill="#464646"/>
</g>
<defs>
<clipPath id="clip0_427_1427">
<rect width="19.108" height="19.1087" fill="white" transform="translate(0.30481 0.445801)"/>
</clipPath>
</defs>
</svg>
