<svg width="7" height="12" viewBox="0 0 7 12" fill="none" xmlns="http://www.w3.org/2000/svg">
<g clip-path="url(#clip0_343_1790)">
<path d="M6.70994 5.28915L1.70994 0.289148C1.6167 0.19591 1.50601 0.121949 1.38419 0.0714886C1.26237 0.0210283 1.1318 -0.00494365 0.999939 -0.00494367C0.733637 -0.00494372 0.478243 0.100844 0.289939 0.289148C0.1967 0.382386 0.122739 0.493077 0.0722789 0.614899C0.0218185 0.736721 -0.00415245 0.867289 -0.00415247 0.999148C-0.00415252 1.26545 0.101635 1.52084 0.289939 1.70915L4.58994 5.99915L0.289937 10.2891C0.196209 10.3821 0.121815 10.4927 0.0710459 10.6146C0.0202772 10.7364 -0.00586128 10.8671 -0.0058613 10.9991C-0.00586132 11.1312 0.0202771 11.2619 0.0710458 11.3837C0.121814 11.5056 0.196208 11.6162 0.289937 11.7091C0.3829 11.8029 0.493501 11.8773 0.61536 11.928C0.737219 11.9788 0.867925 12.0049 0.999937 12.0049C1.13195 12.0049 1.26265 11.9788 1.38451 11.928C1.50637 11.8773 1.61697 11.8029 1.70994 11.7091L6.70994 6.70915C6.80367 6.61619 6.87806 6.50559 6.92883 6.38373C6.9796 6.26187 7.00574 6.13116 7.00574 5.99915C7.00574 5.86714 6.9796 5.73643 6.92883 5.61457C6.87806 5.49271 6.80367 5.38211 6.70994 5.28915Z" fill="#FE7563"/>
</g>
<defs>
<clipPath id="clip0_343_1790">
<rect width="7.0116" height="12.0099" fill="white" transform="translate(-0.00585938 -0.00494385)"/>
</clipPath>
</defs>
</svg>
