<svg width="297" height="94" viewBox="0 0 297 94" fill="none" xmlns="http://www.w3.org/2000/svg">
<g clip-path="url(#clip0_343_795)">
<rect width="296.295" height="94" fill="#4B4BFB"/>
<path d="M36.8638 81.4564H22.9585V16.1405H53.511C67.7101 16.1405 75.4462 25.7371 75.4462 37.1943C75.4462 48.5536 67.6122 58.2482 53.511 58.2482H36.8638V81.4564ZM51.6505 46.0076C57.1343 46.0076 61.2471 42.5802 61.2471 37.1943C61.2471 31.7106 57.1343 28.3811 51.6505 28.3811H36.8638V46.0076H51.6505Z" fill="white"/>
<path d="M189.982 82.6315C177.448 82.6315 168.439 78.4207 162.368 72.2514L169.908 61.6755C174.51 66.4739 181.659 70.4888 190.668 70.4888C198.306 70.4888 202.027 66.9635 202.027 63.2423C202.027 51.6872 164.424 59.6191 164.424 35.04C164.424 24.1703 173.825 15.1613 189.199 15.1613C199.579 15.1613 208.197 18.2949 214.66 24.2683L206.923 34.4524C201.636 29.5562 194.585 27.3039 187.926 27.3039C181.953 27.3039 178.623 29.9479 178.623 33.8649C178.623 44.2449 216.128 37.2923 216.128 61.6755C216.128 73.6224 207.609 82.6315 189.982 82.6315Z" fill="white"/>
<path d="M266.466 81.4564H252.463V28.3811H233.368V16.1405H285.464V28.3811H266.466V81.4564Z" fill="white"/>
<path fill-rule="evenodd" clip-rule="evenodd" d="M142.984 81.673H94.9011V70.8435H142.984V81.673Z" fill="#FCD139"/>
<path fill-rule="evenodd" clip-rule="evenodd" d="M118.942 50.2674C125.282 50.2674 130.422 45.128 130.422 38.7882C130.422 32.4483 125.282 27.3089 118.942 27.3089C112.603 27.3089 107.463 32.4483 107.463 38.7882C107.463 45.128 112.603 50.2674 118.942 50.2674ZM118.942 61.9633C131.742 61.9633 142.118 51.5874 142.118 38.7882C142.118 25.9889 131.742 15.613 118.942 15.613C106.143 15.613 95.7673 25.9889 95.7673 38.7882C95.7673 51.5874 106.143 61.9633 118.942 61.9633Z" fill="#FE7563"/>
</g>
<defs>
<clipPath id="clip0_343_795">
<rect width="296.295" height="94" fill="white"/>
</clipPath>
</defs>
</svg>
