<svg width="1440" height="92" viewBox="0 0 1440 92" fill="none" xmlns="http://www.w3.org/2000/svg">
<g clip-path="url(#clip0_423_994)">
<path d="M154.064 56V41.7227H155.725V54.4961H162.023V56H154.064ZM173.449 50.6387C173.449 52.3835 173.01 53.7474 172.131 54.7305C171.252 55.707 170.038 56.1953 168.488 56.1953C167.531 56.1953 166.682 55.9707 165.939 55.5215C165.197 55.0723 164.624 54.4277 164.221 53.5879C163.817 52.748 163.615 51.765 163.615 50.6387C163.615 48.8939 164.051 47.5365 164.924 46.5664C165.796 45.5898 167.007 45.1016 168.557 45.1016C170.054 45.1016 171.242 45.5996 172.121 46.5957C173.007 47.5918 173.449 48.9395 173.449 50.6387ZM165.295 50.6387C165.295 52.0059 165.568 53.0475 166.115 53.7637C166.662 54.4798 167.466 54.8379 168.527 54.8379C169.589 54.8379 170.393 54.4831 170.939 53.7734C171.493 53.0573 171.77 52.0124 171.77 50.6387C171.77 49.278 171.493 48.2461 170.939 47.543C170.393 46.8333 169.582 46.4785 168.508 46.4785C167.447 46.4785 166.646 46.8268 166.105 47.5234C165.565 48.2201 165.295 49.2585 165.295 50.6387ZM183.625 56V49.0762C183.625 48.2038 183.426 47.5527 183.029 47.123C182.632 46.6934 182.01 46.4785 181.164 46.4785C180.044 46.4785 179.224 46.7812 178.703 47.3867C178.182 47.9922 177.922 48.9915 177.922 50.3848V56H176.301V45.2969H177.619L177.883 46.7617H177.961C178.293 46.2344 178.758 45.8275 179.357 45.541C179.956 45.248 180.624 45.1016 181.359 45.1016C182.648 45.1016 183.618 45.4141 184.27 46.0391C184.921 46.6576 185.246 47.6504 185.246 49.0176V56H183.625ZM197.346 45.2969V46.3223L195.363 46.5566C195.546 46.7845 195.708 47.084 195.852 47.4551C195.995 47.8197 196.066 48.2331 196.066 48.6953C196.066 49.7435 195.708 50.5801 194.992 51.2051C194.276 51.8301 193.293 52.1426 192.043 52.1426C191.724 52.1426 191.424 52.1165 191.145 52.0645C190.454 52.429 190.109 52.888 190.109 53.4414C190.109 53.7344 190.23 53.9525 190.471 54.0957C190.712 54.2324 191.125 54.3008 191.711 54.3008H193.605C194.764 54.3008 195.653 54.5449 196.271 55.0332C196.896 55.5215 197.209 56.2311 197.209 57.1621C197.209 58.347 196.734 59.2487 195.783 59.8672C194.833 60.4922 193.446 60.8047 191.623 60.8047C190.223 60.8047 189.143 60.5443 188.381 60.0234C187.626 59.5026 187.248 58.7669 187.248 57.8164C187.248 57.1654 187.456 56.6022 187.873 56.127C188.29 55.6517 188.876 55.3294 189.631 55.1602C189.357 55.0365 189.126 54.8444 188.938 54.584C188.755 54.3236 188.664 54.0208 188.664 53.6758C188.664 53.2852 188.768 52.9434 188.977 52.6504C189.185 52.3574 189.514 52.0742 189.963 51.8008C189.41 51.5729 188.957 51.1855 188.605 50.6387C188.26 50.0918 188.088 49.4668 188.088 48.7637C188.088 47.5918 188.439 46.6901 189.143 46.0586C189.846 45.4206 190.842 45.1016 192.131 45.1016C192.691 45.1016 193.195 45.1667 193.645 45.2969H197.346ZM188.811 57.7969C188.811 58.3763 189.055 58.8158 189.543 59.1152C190.031 59.4147 190.731 59.5645 191.643 59.5645C193.003 59.5645 194.009 59.3594 194.66 58.9492C195.318 58.5456 195.646 57.9954 195.646 57.2988C195.646 56.7194 195.467 56.3158 195.109 56.0879C194.751 55.8665 194.077 55.7559 193.088 55.7559H191.145C190.409 55.7559 189.836 55.9316 189.426 56.2832C189.016 56.6348 188.811 57.1393 188.811 57.7969ZM189.689 48.7246C189.689 49.4733 189.901 50.0397 190.324 50.4238C190.747 50.8079 191.337 51 192.092 51C193.674 51 194.465 50.2318 194.465 48.6953C194.465 47.0872 193.664 46.2832 192.062 46.2832C191.301 46.2832 190.715 46.4883 190.305 46.8984C189.895 47.3086 189.689 47.9173 189.689 48.7246ZM198.645 51.3809V49.8965H203.439V51.3809H198.645ZM209.445 54.8574C209.732 54.8574 210.008 54.8379 210.275 54.7988C210.542 54.7533 210.754 54.7077 210.91 54.6621V55.9023C210.734 55.987 210.474 56.0553 210.129 56.1074C209.79 56.166 209.484 56.1953 209.211 56.1953C207.141 56.1953 206.105 55.1048 206.105 52.9238V46.5566H204.572V45.7754L206.105 45.1016L206.789 42.8164H207.727V45.2969H210.832V46.5566H207.727V52.8555C207.727 53.5 207.88 53.9948 208.186 54.3398C208.492 54.6849 208.911 54.8574 209.445 54.8574ZM217.58 56.1953C215.998 56.1953 214.748 55.7135 213.83 54.75C212.919 53.7865 212.463 52.4486 212.463 50.7363C212.463 49.0111 212.886 47.6406 213.732 46.625C214.585 45.6094 215.728 45.1016 217.16 45.1016C218.501 45.1016 219.562 45.5443 220.344 46.4297C221.125 47.3086 221.516 48.4707 221.516 49.916V50.9414H214.143C214.175 52.1979 214.491 53.1517 215.09 53.8027C215.695 54.4538 216.545 54.7793 217.639 54.7793C218.791 54.7793 219.93 54.5384 221.057 54.0566V55.502C220.484 55.7493 219.94 55.9251 219.426 56.0293C218.918 56.14 218.303 56.1953 217.58 56.1953ZM217.141 46.459C216.281 46.459 215.594 46.7389 215.08 47.2988C214.572 47.8587 214.273 48.6335 214.182 49.623H219.777C219.777 48.6009 219.549 47.8197 219.094 47.2793C218.638 46.7324 217.987 46.459 217.141 46.459ZM229.172 45.1016C229.647 45.1016 230.074 45.1406 230.451 45.2188L230.227 46.7227C229.784 46.625 229.393 46.5762 229.055 46.5762C228.189 46.5762 227.447 46.9277 226.828 47.6309C226.216 48.334 225.91 49.2096 225.91 50.2578V56H224.289V45.2969H225.627L225.812 47.2793H225.891C226.288 46.5827 226.766 46.0456 227.326 45.668C227.886 45.2904 228.501 45.1016 229.172 45.1016ZM246.096 56V49.0371C246.096 48.1842 245.913 47.5462 245.549 47.123C245.184 46.6934 244.618 46.4785 243.85 46.4785C242.84 46.4785 242.095 46.7682 241.613 47.3477C241.132 47.9271 240.891 48.819 240.891 50.0234V56H239.27V49.0371C239.27 48.1842 239.087 47.5462 238.723 47.123C238.358 46.6934 237.788 46.4785 237.014 46.4785C235.998 46.4785 235.253 46.7845 234.777 47.3965C234.309 48.002 234.074 48.998 234.074 50.3848V56H232.453V45.2969H233.771L234.035 46.7617H234.113C234.419 46.2409 234.849 45.834 235.402 45.541C235.962 45.248 236.587 45.1016 237.277 45.1016C238.951 45.1016 240.044 45.707 240.559 46.918H240.637C240.956 46.3581 241.418 45.9154 242.023 45.5898C242.629 45.2643 243.319 45.1016 244.094 45.1016C245.305 45.1016 246.21 45.4141 246.809 46.0391C247.414 46.6576 247.717 47.6504 247.717 49.0176V56H246.096ZM258.166 50.0625V56H256.506V41.7227H260.422C262.173 41.7227 263.465 42.0579 264.299 42.7285C265.139 43.3991 265.559 44.4082 265.559 45.7559C265.559 47.6439 264.602 48.9199 262.688 49.584L266.564 56H264.602L261.145 50.0625H258.166ZM258.166 48.6367H260.441C261.613 48.6367 262.473 48.4056 263.02 47.9434C263.566 47.4746 263.84 46.7747 263.84 45.8438C263.84 44.8997 263.56 44.2194 263 43.8027C262.447 43.3861 261.555 43.1777 260.324 43.1777H258.166V48.6367ZM273.146 56.1953C271.564 56.1953 270.314 55.7135 269.396 54.75C268.485 53.7865 268.029 52.4486 268.029 50.7363C268.029 49.0111 268.452 47.6406 269.299 46.625C270.152 45.6094 271.294 45.1016 272.727 45.1016C274.068 45.1016 275.129 45.5443 275.91 46.4297C276.691 47.3086 277.082 48.4707 277.082 49.916V50.9414H269.709C269.742 52.1979 270.057 53.1517 270.656 53.8027C271.262 54.4538 272.111 54.7793 273.205 54.7793C274.357 54.7793 275.497 54.5384 276.623 54.0566V55.502C276.05 55.7493 275.507 55.9251 274.992 56.0293C274.484 56.14 273.869 56.1953 273.146 56.1953ZM272.707 46.459C271.848 46.459 271.161 46.7389 270.646 47.2988C270.139 47.8587 269.839 48.6335 269.748 49.623H275.344C275.344 48.6009 275.116 47.8197 274.66 47.2793C274.204 46.7324 273.553 46.459 272.707 46.459ZM286.76 53.0801C286.76 54.0762 286.389 54.8444 285.646 55.3848C284.904 55.9251 283.863 56.1953 282.521 56.1953C281.102 56.1953 279.995 55.9707 279.201 55.5215V54.0176C279.715 54.278 280.266 54.4831 280.852 54.6328C281.444 54.7826 282.014 54.8574 282.561 54.8574C283.407 54.8574 284.058 54.724 284.514 54.457C284.969 54.1836 285.197 53.7702 285.197 53.2168C285.197 52.8001 285.015 52.4453 284.65 52.1523C284.292 51.8529 283.589 51.5013 282.541 51.0977C281.545 50.7266 280.835 50.4043 280.412 50.1309C279.995 49.8509 279.683 49.5352 279.475 49.1836C279.273 48.832 279.172 48.4121 279.172 47.9238C279.172 47.0514 279.527 46.3646 280.236 45.8633C280.946 45.3555 281.919 45.1016 283.156 45.1016C284.309 45.1016 285.435 45.3359 286.535 45.8047L285.959 47.123C284.885 46.6803 283.911 46.459 283.039 46.459C282.271 46.459 281.691 46.5794 281.301 46.8203C280.91 47.0612 280.715 47.3932 280.715 47.8164C280.715 48.1029 280.786 48.347 280.93 48.5488C281.079 48.7507 281.317 48.9427 281.643 49.125C281.968 49.3073 282.593 49.571 283.518 49.916C284.787 50.3783 285.643 50.8438 286.086 51.3125C286.535 51.7812 286.76 52.3704 286.76 53.0801ZM291.027 56H289.406V45.2969H291.027V56ZM289.27 42.3965C289.27 42.0254 289.361 41.7552 289.543 41.5859C289.725 41.4102 289.953 41.3223 290.227 41.3223C290.487 41.3223 290.712 41.4102 290.9 41.5859C291.089 41.7617 291.184 42.0319 291.184 42.3965C291.184 42.7611 291.089 43.0345 290.9 43.2168C290.712 43.3926 290.487 43.4805 290.227 43.4805C289.953 43.4805 289.725 43.3926 289.543 43.2168C289.361 43.0345 289.27 42.7611 289.27 42.3965ZM301.75 54.5645H301.662C300.913 55.6517 299.794 56.1953 298.303 56.1953C296.903 56.1953 295.812 55.7168 295.031 54.7598C294.257 53.8027 293.869 52.4421 293.869 50.6777C293.869 48.9134 294.26 47.543 295.041 46.5664C295.822 45.5898 296.91 45.1016 298.303 45.1016C299.755 45.1016 300.868 45.6289 301.643 46.6836H301.77L301.701 45.9121L301.662 45.1602V40.8047H303.283V56H301.965L301.75 54.5645ZM298.508 54.8379C299.615 54.8379 300.415 54.5384 300.91 53.9395C301.411 53.334 301.662 52.3607 301.662 51.0195V50.6777C301.662 49.1608 301.408 48.0801 300.9 47.4355C300.399 46.7845 299.595 46.459 298.488 46.459C297.538 46.459 296.809 46.8301 296.301 47.5723C295.799 48.3079 295.549 49.3496 295.549 50.6973C295.549 52.0645 295.799 53.0964 296.301 53.793C296.802 54.4896 297.538 54.8379 298.508 54.8379ZM311.252 56.1953C309.67 56.1953 308.42 55.7135 307.502 54.75C306.59 53.7865 306.135 52.4486 306.135 50.7363C306.135 49.0111 306.558 47.6406 307.404 46.625C308.257 45.6094 309.4 45.1016 310.832 45.1016C312.173 45.1016 313.234 45.5443 314.016 46.4297C314.797 47.3086 315.188 48.4707 315.188 49.916V50.9414H307.814C307.847 52.1979 308.163 53.1517 308.762 53.8027C309.367 54.4538 310.217 54.7793 311.311 54.7793C312.463 54.7793 313.602 54.5384 314.729 54.0566V55.502C314.156 55.7493 313.612 55.9251 313.098 56.0293C312.59 56.14 311.975 56.1953 311.252 56.1953ZM310.812 46.459C309.953 46.459 309.266 46.7389 308.752 47.2988C308.244 47.8587 307.945 48.6335 307.854 49.623H313.449C313.449 48.6009 313.221 47.8197 312.766 47.2793C312.31 46.7324 311.659 46.459 310.812 46.459ZM325.285 56V49.0762C325.285 48.2038 325.087 47.5527 324.689 47.123C324.292 46.6934 323.671 46.4785 322.824 46.4785C321.704 46.4785 320.884 46.7812 320.363 47.3867C319.842 47.9922 319.582 48.9915 319.582 50.3848V56H317.961V45.2969H319.279L319.543 46.7617H319.621C319.953 46.2344 320.419 45.8275 321.018 45.541C321.617 45.248 322.284 45.1016 323.02 45.1016C324.309 45.1016 325.279 45.4141 325.93 46.0391C326.581 46.6576 326.906 47.6504 326.906 49.0176V56H325.285ZM334.523 56.1953C332.974 56.1953 331.773 55.7201 330.92 54.7695C330.074 53.8125 329.65 52.4616 329.65 50.7168C329.65 48.9264 330.08 47.543 330.939 46.5664C331.805 45.5898 333.036 45.1016 334.631 45.1016C335.145 45.1016 335.66 45.1569 336.174 45.2676C336.688 45.3783 337.092 45.5085 337.385 45.6582L336.887 47.0352C336.529 46.8919 336.138 46.7747 335.715 46.6836C335.292 46.5859 334.917 46.5371 334.592 46.5371C332.417 46.5371 331.33 47.9238 331.33 50.6973C331.33 52.0124 331.594 53.0215 332.121 53.7246C332.655 54.4277 333.443 54.7793 334.484 54.7793C335.376 54.7793 336.291 54.5872 337.229 54.2031V55.6387C336.512 56.0098 335.611 56.1953 334.523 56.1953ZM341.398 56H339.777V45.2969H341.398V56ZM339.641 42.3965C339.641 42.0254 339.732 41.7552 339.914 41.5859C340.096 41.4102 340.324 41.3223 340.598 41.3223C340.858 41.3223 341.083 41.4102 341.271 41.5859C341.46 41.7617 341.555 42.0319 341.555 42.3965C341.555 42.7611 341.46 43.0345 341.271 43.2168C341.083 43.3926 340.858 43.4805 340.598 43.4805C340.324 43.4805 340.096 43.3926 339.914 43.2168C339.732 43.0345 339.641 42.7611 339.641 42.3965ZM349.357 56.1953C347.775 56.1953 346.525 55.7135 345.607 54.75C344.696 53.7865 344.24 52.4486 344.24 50.7363C344.24 49.0111 344.663 47.6406 345.51 46.625C346.363 45.6094 347.505 45.1016 348.938 45.1016C350.279 45.1016 351.34 45.5443 352.121 46.4297C352.902 47.3086 353.293 48.4707 353.293 49.916V50.9414H345.92C345.952 52.1979 346.268 53.1517 346.867 53.8027C347.473 54.4538 348.322 54.7793 349.416 54.7793C350.568 54.7793 351.708 54.5384 352.834 54.0566V55.502C352.261 55.7493 351.717 55.9251 351.203 56.0293C350.695 56.14 350.08 56.1953 349.357 56.1953ZM348.918 46.459C348.059 46.459 347.372 46.7389 346.857 47.2988C346.35 47.8587 346.05 48.6335 345.959 49.623H351.555C351.555 48.6009 351.327 47.8197 350.871 47.2793C350.415 46.7324 349.764 46.459 348.918 46.459ZM362.971 53.0801C362.971 54.0762 362.6 54.8444 361.857 55.3848C361.115 55.9251 360.074 56.1953 358.732 56.1953C357.313 56.1953 356.206 55.9707 355.412 55.5215V54.0176C355.926 54.278 356.477 54.4831 357.062 54.6328C357.655 54.7826 358.225 54.8574 358.771 54.8574C359.618 54.8574 360.269 54.724 360.725 54.457C361.18 54.1836 361.408 53.7702 361.408 53.2168C361.408 52.8001 361.226 52.4453 360.861 52.1523C360.503 51.8529 359.8 51.5013 358.752 51.0977C357.756 50.7266 357.046 50.4043 356.623 50.1309C356.206 49.8509 355.894 49.5352 355.686 49.1836C355.484 48.832 355.383 48.4121 355.383 47.9238C355.383 47.0514 355.738 46.3646 356.447 45.8633C357.157 45.3555 358.13 45.1016 359.367 45.1016C360.52 45.1016 361.646 45.3359 362.746 45.8047L362.17 47.123C361.096 46.6803 360.122 46.459 359.25 46.459C358.482 46.459 357.902 46.5794 357.512 46.8203C357.121 47.0612 356.926 47.3932 356.926 47.8164C356.926 48.1029 356.997 48.347 357.141 48.5488C357.29 48.7507 357.528 48.9427 357.854 49.125C358.179 49.3073 358.804 49.571 359.729 49.916C360.998 50.3783 361.854 50.8438 362.297 51.3125C362.746 51.7812 362.971 52.3704 362.971 53.0801Z" fill="#464646"/>
<path d="M380.716 47.7891L375.716 42.7891C375.623 42.6958 375.512 42.6219 375.39 42.5714C375.268 42.521 375.138 42.495 375.006 42.495C374.739 42.495 374.484 42.6008 374.296 42.7891C374.203 42.8823 374.129 42.993 374.078 43.1148C374.028 43.2367 374.002 43.3672 374.002 43.4991C374.002 43.7654 374.107 44.0208 374.296 44.2091L378.596 48.4991L374.296 52.7891C374.202 52.8821 374.128 52.9927 374.077 53.1145C374.026 53.2364 374 53.3671 374 53.4991C374 53.6311 374.026 53.7618 374.077 53.8837C374.128 54.0055 374.202 54.1161 374.296 54.2091C374.389 54.3028 374.499 54.3772 374.621 54.428C374.743 54.4787 374.874 54.5049 375.006 54.5049C375.138 54.5049 375.269 54.4787 375.39 54.428C375.512 54.3772 375.623 54.3028 375.716 54.2091L380.716 49.2091C380.81 49.1161 380.884 49.0055 380.935 48.8837C380.985 48.7618 381.012 48.6311 381.012 48.4991C381.012 48.3671 380.985 48.2364 380.935 48.1145C380.884 47.9927 380.81 47.8821 380.716 47.7891Z" fill="#FE7563"/>
<path d="M440.189 52.2012C440.189 53.4577 439.734 54.4375 438.822 55.1406C437.911 55.8438 436.674 56.1953 435.111 56.1953C433.419 56.1953 432.117 55.9772 431.205 55.541V53.9395C431.791 54.1868 432.429 54.3822 433.119 54.5254C433.809 54.6686 434.493 54.7402 435.17 54.7402C436.277 54.7402 437.11 54.5319 437.67 54.1152C438.23 53.6921 438.51 53.1061 438.51 52.3574C438.51 51.8626 438.409 51.459 438.207 51.1465C438.012 50.8275 437.68 50.5345 437.211 50.2676C436.749 50.0007 436.042 49.6979 435.092 49.3594C433.764 48.8841 432.813 48.321 432.24 47.6699C431.674 47.0189 431.391 46.1693 431.391 45.1211C431.391 44.0208 431.804 43.1452 432.631 42.4941C433.458 41.8431 434.551 41.5176 435.912 41.5176C437.331 41.5176 438.637 41.778 439.828 42.2988L439.311 43.7441C438.132 43.2493 436.986 43.002 435.873 43.002C434.994 43.002 434.307 43.1908 433.812 43.5684C433.318 43.946 433.07 44.4701 433.07 45.1406C433.07 45.6354 433.161 46.0423 433.344 46.3613C433.526 46.6738 433.832 46.9635 434.262 47.2305C434.698 47.4909 435.362 47.7806 436.254 48.0996C437.751 48.6335 438.78 49.2064 439.34 49.8184C439.906 50.4303 440.189 51.2246 440.189 52.2012ZM450.189 56V49.0762C450.189 48.2038 449.991 47.5527 449.594 47.123C449.197 46.6934 448.575 46.4785 447.729 46.4785C446.602 46.4785 445.779 46.7845 445.258 47.3965C444.743 48.0085 444.486 49.0111 444.486 50.4043V56H442.865V40.8047H444.486V45.4043C444.486 45.9577 444.46 46.4167 444.408 46.7812H444.506C444.825 46.2669 445.277 45.8633 445.863 45.5703C446.456 45.2708 447.13 45.1211 447.885 45.1211C449.193 45.1211 450.173 45.4336 450.824 46.0586C451.482 46.6771 451.811 47.6634 451.811 49.0176V56H450.189ZM464.389 50.6387C464.389 52.3835 463.949 53.7474 463.07 54.7305C462.191 55.707 460.977 56.1953 459.428 56.1953C458.471 56.1953 457.621 55.9707 456.879 55.5215C456.137 55.0723 455.564 54.4277 455.16 53.5879C454.757 52.748 454.555 51.765 454.555 50.6387C454.555 48.8939 454.991 47.5365 455.863 46.5664C456.736 45.5898 457.947 45.1016 459.496 45.1016C460.993 45.1016 462.182 45.5996 463.061 46.5957C463.946 47.5918 464.389 48.9395 464.389 50.6387ZM456.234 50.6387C456.234 52.0059 456.508 53.0475 457.055 53.7637C457.602 54.4798 458.406 54.8379 459.467 54.8379C460.528 54.8379 461.332 54.4831 461.879 53.7734C462.432 53.0573 462.709 52.0124 462.709 50.6387C462.709 49.278 462.432 48.2461 461.879 47.543C461.332 46.8333 460.521 46.4785 459.447 46.4785C458.386 46.4785 457.585 46.8268 457.045 47.5234C456.505 48.2201 456.234 49.2585 456.234 50.6387ZM472.123 45.1016C472.598 45.1016 473.025 45.1406 473.402 45.2188L473.178 46.7227C472.735 46.625 472.344 46.5762 472.006 46.5762C471.14 46.5762 470.398 46.9277 469.779 47.6309C469.167 48.334 468.861 49.2096 468.861 50.2578V56H467.24V45.2969H468.578L468.764 47.2793H468.842C469.239 46.5827 469.717 46.0456 470.277 45.668C470.837 45.2904 471.452 45.1016 472.123 45.1016ZM478.861 54.8574C479.148 54.8574 479.424 54.8379 479.691 54.7988C479.958 54.7533 480.17 54.7077 480.326 54.6621V55.9023C480.15 55.987 479.89 56.0553 479.545 56.1074C479.206 56.166 478.9 56.1953 478.627 56.1953C476.557 56.1953 475.521 55.1048 475.521 52.9238V46.5566H473.988V45.7754L475.521 45.1016L476.205 42.8164H477.143V45.2969H480.248V46.5566H477.143V52.8555C477.143 53.5 477.296 53.9948 477.602 54.3398C477.908 54.6849 478.327 54.8574 478.861 54.8574ZM481.576 51.3809V49.8965H486.371V51.3809H481.576ZM492.377 54.8574C492.663 54.8574 492.94 54.8379 493.207 54.7988C493.474 54.7533 493.686 54.7077 493.842 54.6621V55.9023C493.666 55.987 493.406 56.0553 493.061 56.1074C492.722 56.166 492.416 56.1953 492.143 56.1953C490.072 56.1953 489.037 55.1048 489.037 52.9238V46.5566H487.504V45.7754L489.037 45.1016L489.721 42.8164H490.658V45.2969H493.764V46.5566H490.658V52.8555C490.658 53.5 490.811 53.9948 491.117 54.3398C491.423 54.6849 491.843 54.8574 492.377 54.8574ZM500.512 56.1953C498.93 56.1953 497.68 55.7135 496.762 54.75C495.85 53.7865 495.395 52.4486 495.395 50.7363C495.395 49.0111 495.818 47.6406 496.664 46.625C497.517 45.6094 498.66 45.1016 500.092 45.1016C501.433 45.1016 502.494 45.5443 503.275 46.4297C504.057 47.3086 504.447 48.4707 504.447 49.916V50.9414H497.074C497.107 52.1979 497.423 53.1517 498.021 53.8027C498.627 54.4538 499.477 54.7793 500.57 54.7793C501.723 54.7793 502.862 54.5384 503.988 54.0566V55.502C503.415 55.7493 502.872 55.9251 502.357 56.0293C501.85 56.14 501.234 56.1953 500.512 56.1953ZM500.072 46.459C499.213 46.459 498.526 46.7389 498.012 47.2988C497.504 47.8587 497.204 48.6335 497.113 49.623H502.709C502.709 48.6009 502.481 47.8197 502.025 47.2793C501.57 46.7324 500.919 46.459 500.072 46.459ZM512.104 45.1016C512.579 45.1016 513.005 45.1406 513.383 45.2188L513.158 46.7227C512.715 46.625 512.325 46.5762 511.986 46.5762C511.12 46.5762 510.378 46.9277 509.76 47.6309C509.148 48.334 508.842 49.2096 508.842 50.2578V56H507.221V45.2969H508.559L508.744 47.2793H508.822C509.219 46.5827 509.698 46.0456 510.258 45.668C510.818 45.2904 511.433 45.1016 512.104 45.1016ZM529.027 56V49.0371C529.027 48.1842 528.845 47.5462 528.48 47.123C528.116 46.6934 527.549 46.4785 526.781 46.4785C525.772 46.4785 525.027 46.7682 524.545 47.3477C524.063 47.9271 523.822 48.819 523.822 50.0234V56H522.201V49.0371C522.201 48.1842 522.019 47.5462 521.654 47.123C521.29 46.6934 520.72 46.4785 519.945 46.4785C518.93 46.4785 518.184 46.7845 517.709 47.3965C517.24 48.002 517.006 48.998 517.006 50.3848V56H515.385V45.2969H516.703L516.967 46.7617H517.045C517.351 46.2409 517.781 45.834 518.334 45.541C518.894 45.248 519.519 45.1016 520.209 45.1016C521.882 45.1016 522.976 45.707 523.49 46.918H523.568C523.887 46.3581 524.35 45.9154 524.955 45.5898C525.561 45.2643 526.251 45.1016 527.025 45.1016C528.236 45.1016 529.141 45.4141 529.74 46.0391C530.346 46.6576 530.648 47.6504 530.648 49.0176V56H529.027ZM541.098 50.0625V56H539.438V41.7227H543.354C545.105 41.7227 546.397 42.0579 547.23 42.7285C548.07 43.3991 548.49 44.4082 548.49 45.7559C548.49 47.6439 547.533 48.9199 545.619 49.584L549.496 56H547.533L544.076 50.0625H541.098ZM541.098 48.6367H543.373C544.545 48.6367 545.404 48.4056 545.951 47.9434C546.498 47.4746 546.771 46.7747 546.771 45.8438C546.771 44.8997 546.492 44.2194 545.932 43.8027C545.378 43.3861 544.486 43.1777 543.256 43.1777H541.098V48.6367ZM556.078 56.1953C554.496 56.1953 553.246 55.7135 552.328 54.75C551.417 53.7865 550.961 52.4486 550.961 50.7363C550.961 49.0111 551.384 47.6406 552.23 46.625C553.083 45.6094 554.226 45.1016 555.658 45.1016C556.999 45.1016 558.061 45.5443 558.842 46.4297C559.623 47.3086 560.014 48.4707 560.014 49.916V50.9414H552.641C552.673 52.1979 552.989 53.1517 553.588 53.8027C554.193 54.4538 555.043 54.7793 556.137 54.7793C557.289 54.7793 558.428 54.5384 559.555 54.0566V55.502C558.982 55.7493 558.438 55.9251 557.924 56.0293C557.416 56.14 556.801 56.1953 556.078 56.1953ZM555.639 46.459C554.779 46.459 554.092 46.7389 553.578 47.2988C553.07 47.8587 552.771 48.6335 552.68 49.623H558.275C558.275 48.6009 558.048 47.8197 557.592 47.2793C557.136 46.7324 556.485 46.459 555.639 46.459ZM569.691 53.0801C569.691 54.0762 569.32 54.8444 568.578 55.3848C567.836 55.9251 566.794 56.1953 565.453 56.1953C564.034 56.1953 562.927 55.9707 562.133 55.5215V54.0176C562.647 54.278 563.197 54.4831 563.783 54.6328C564.376 54.7826 564.945 54.8574 565.492 54.8574C566.339 54.8574 566.99 54.724 567.445 54.457C567.901 54.1836 568.129 53.7702 568.129 53.2168C568.129 52.8001 567.947 52.4453 567.582 52.1523C567.224 51.8529 566.521 51.5013 565.473 51.0977C564.477 50.7266 563.767 50.4043 563.344 50.1309C562.927 49.8509 562.615 49.5352 562.406 49.1836C562.204 48.832 562.104 48.4121 562.104 47.9238C562.104 47.0514 562.458 46.3646 563.168 45.8633C563.878 45.3555 564.851 45.1016 566.088 45.1016C567.24 45.1016 568.367 45.3359 569.467 45.8047L568.891 47.123C567.816 46.6803 566.843 46.459 565.971 46.459C565.202 46.459 564.623 46.5794 564.232 46.8203C563.842 47.0612 563.646 47.3932 563.646 47.8164C563.646 48.1029 563.718 48.347 563.861 48.5488C564.011 48.7507 564.249 48.9427 564.574 49.125C564.9 49.3073 565.525 49.571 566.449 49.916C567.719 50.3783 568.575 50.8438 569.018 51.3125C569.467 51.7812 569.691 52.3704 569.691 53.0801ZM573.959 56H572.338V45.2969H573.959V56ZM572.201 42.3965C572.201 42.0254 572.292 41.7552 572.475 41.5859C572.657 41.4102 572.885 41.3223 573.158 41.3223C573.419 41.3223 573.643 41.4102 573.832 41.5859C574.021 41.7617 574.115 42.0319 574.115 42.3965C574.115 42.7611 574.021 43.0345 573.832 43.2168C573.643 43.3926 573.419 43.4805 573.158 43.4805C572.885 43.4805 572.657 43.3926 572.475 43.2168C572.292 43.0345 572.201 42.7611 572.201 42.3965ZM584.682 54.5645H584.594C583.845 55.6517 582.725 56.1953 581.234 56.1953C579.835 56.1953 578.744 55.7168 577.963 54.7598C577.188 53.8027 576.801 52.4421 576.801 50.6777C576.801 48.9134 577.191 47.543 577.973 46.5664C578.754 45.5898 579.841 45.1016 581.234 45.1016C582.686 45.1016 583.799 45.6289 584.574 46.6836H584.701L584.633 45.9121L584.594 45.1602V40.8047H586.215V56H584.896L584.682 54.5645ZM581.439 54.8379C582.546 54.8379 583.347 54.5384 583.842 53.9395C584.343 53.334 584.594 52.3607 584.594 51.0195V50.6777C584.594 49.1608 584.34 48.0801 583.832 47.4355C583.331 46.7845 582.527 46.459 581.42 46.459C580.469 46.459 579.74 46.8301 579.232 47.5723C578.731 48.3079 578.48 49.3496 578.48 50.6973C578.48 52.0645 578.731 53.0964 579.232 53.793C579.734 54.4896 580.469 54.8379 581.439 54.8379ZM594.184 56.1953C592.602 56.1953 591.352 55.7135 590.434 54.75C589.522 53.7865 589.066 52.4486 589.066 50.7363C589.066 49.0111 589.49 47.6406 590.336 46.625C591.189 45.6094 592.331 45.1016 593.764 45.1016C595.105 45.1016 596.166 45.5443 596.947 46.4297C597.729 47.3086 598.119 48.4707 598.119 49.916V50.9414H590.746C590.779 52.1979 591.094 53.1517 591.693 53.8027C592.299 54.4538 593.148 54.7793 594.242 54.7793C595.395 54.7793 596.534 54.5384 597.66 54.0566V55.502C597.087 55.7493 596.544 55.9251 596.029 56.0293C595.521 56.14 594.906 56.1953 594.184 56.1953ZM593.744 46.459C592.885 46.459 592.198 46.7389 591.684 47.2988C591.176 47.8587 590.876 48.6335 590.785 49.623H596.381C596.381 48.6009 596.153 47.8197 595.697 47.2793C595.242 46.7324 594.59 46.459 593.744 46.459ZM608.217 56V49.0762C608.217 48.2038 608.018 47.5527 607.621 47.123C607.224 46.6934 606.602 46.4785 605.756 46.4785C604.636 46.4785 603.816 46.7812 603.295 47.3867C602.774 47.9922 602.514 48.9915 602.514 50.3848V56H600.893V45.2969H602.211L602.475 46.7617H602.553C602.885 46.2344 603.35 45.8275 603.949 45.541C604.548 45.248 605.215 45.1016 605.951 45.1016C607.24 45.1016 608.21 45.4141 608.861 46.0391C609.512 46.6576 609.838 47.6504 609.838 49.0176V56H608.217ZM617.455 56.1953C615.906 56.1953 614.704 55.7201 613.852 54.7695C613.005 53.8125 612.582 52.4616 612.582 50.7168C612.582 48.9264 613.012 47.543 613.871 46.5664C614.737 45.5898 615.967 45.1016 617.562 45.1016C618.077 45.1016 618.591 45.1569 619.105 45.2676C619.62 45.3783 620.023 45.5085 620.316 45.6582L619.818 47.0352C619.46 46.8919 619.07 46.7747 618.646 46.6836C618.223 46.5859 617.849 46.5371 617.523 46.5371C615.349 46.5371 614.262 47.9238 614.262 50.6973C614.262 52.0124 614.525 53.0215 615.053 53.7246C615.587 54.4277 616.374 54.7793 617.416 54.7793C618.308 54.7793 619.223 54.5872 620.16 54.2031V55.6387C619.444 56.0098 618.542 56.1953 617.455 56.1953ZM624.33 56H622.709V45.2969H624.33V56ZM622.572 42.3965C622.572 42.0254 622.663 41.7552 622.846 41.5859C623.028 41.4102 623.256 41.3223 623.529 41.3223C623.79 41.3223 624.014 41.4102 624.203 41.5859C624.392 41.7617 624.486 42.0319 624.486 42.3965C624.486 42.7611 624.392 43.0345 624.203 43.2168C624.014 43.3926 623.79 43.4805 623.529 43.4805C623.256 43.4805 623.028 43.3926 622.846 43.2168C622.663 43.0345 622.572 42.7611 622.572 42.3965ZM632.289 56.1953C630.707 56.1953 629.457 55.7135 628.539 54.75C627.628 53.7865 627.172 52.4486 627.172 50.7363C627.172 49.0111 627.595 47.6406 628.441 46.625C629.294 45.6094 630.437 45.1016 631.869 45.1016C633.21 45.1016 634.271 45.5443 635.053 46.4297C635.834 47.3086 636.225 48.4707 636.225 49.916V50.9414H628.852C628.884 52.1979 629.2 53.1517 629.799 53.8027C630.404 54.4538 631.254 54.7793 632.348 54.7793C633.5 54.7793 634.639 54.5384 635.766 54.0566V55.502C635.193 55.7493 634.649 55.9251 634.135 56.0293C633.627 56.14 633.012 56.1953 632.289 56.1953ZM631.85 46.459C630.99 46.459 630.303 46.7389 629.789 47.2988C629.281 47.8587 628.982 48.6335 628.891 49.623H634.486C634.486 48.6009 634.258 47.8197 633.803 47.2793C633.347 46.7324 632.696 46.459 631.85 46.459ZM645.902 53.0801C645.902 54.0762 645.531 54.8444 644.789 55.3848C644.047 55.9251 643.005 56.1953 641.664 56.1953C640.245 56.1953 639.138 55.9707 638.344 55.5215V54.0176C638.858 54.278 639.408 54.4831 639.994 54.6328C640.587 54.7826 641.156 54.8574 641.703 54.8574C642.549 54.8574 643.201 54.724 643.656 54.457C644.112 54.1836 644.34 53.7702 644.34 53.2168C644.34 52.8001 644.158 52.4453 643.793 52.1523C643.435 51.8529 642.732 51.5013 641.684 51.0977C640.688 50.7266 639.978 50.4043 639.555 50.1309C639.138 49.8509 638.826 49.5352 638.617 49.1836C638.415 48.832 638.314 48.4121 638.314 47.9238C638.314 47.0514 638.669 46.3646 639.379 45.8633C640.089 45.3555 641.062 45.1016 642.299 45.1016C643.451 45.1016 644.577 45.3359 645.678 45.8047L645.102 47.123C644.027 46.6803 643.054 46.459 642.182 46.459C641.413 46.459 640.834 46.5794 640.443 46.8203C640.053 47.0612 639.857 47.3932 639.857 47.8164C639.857 48.1029 639.929 48.347 640.072 48.5488C640.222 48.7507 640.46 48.9427 640.785 49.125C641.111 49.3073 641.736 49.571 642.66 49.916C643.93 50.3783 644.786 50.8438 645.229 51.3125C645.678 51.7812 645.902 52.3704 645.902 53.0801Z" fill="#464646"/>
<path d="M663.716 47.7891L658.716 42.7891C658.623 42.6958 658.512 42.6219 658.39 42.5714C658.268 42.521 658.138 42.495 658.006 42.495C657.739 42.495 657.484 42.6008 657.296 42.7891C657.203 42.8823 657.129 42.993 657.078 43.1148C657.028 43.2367 657.002 43.3672 657.002 43.4991C657.002 43.7654 657.107 44.0208 657.296 44.2091L661.596 48.4991L657.296 52.7891C657.202 52.8821 657.128 52.9927 657.077 53.1145C657.026 53.2364 657 53.3671 657 53.4991C657 53.6311 657.026 53.7618 657.077 53.8837C657.128 54.0055 657.202 54.1161 657.296 54.2091C657.389 54.3028 657.499 54.3772 657.621 54.428C657.743 54.4787 657.874 54.5049 658.006 54.5049C658.138 54.5049 658.269 54.4787 658.39 54.428C658.512 54.3772 658.623 54.3028 658.716 54.2091L663.716 49.2091C663.81 49.1161 663.884 49.0055 663.935 48.8837C663.985 48.7618 664.012 48.6311 664.012 48.4991C664.012 48.3671 663.985 48.2364 663.935 48.1145C663.884 47.9927 663.81 47.8821 663.716 47.7891Z" fill="#FE7563"/>
<path d="M717.521 43.002C715.952 43.002 714.712 43.526 713.801 44.5742C712.896 45.6159 712.443 47.0449 712.443 48.8613C712.443 50.7298 712.88 52.1751 713.752 53.1973C714.631 54.2129 715.881 54.7207 717.502 54.7207C718.498 54.7207 719.634 54.5417 720.91 54.1836V55.6387C719.921 56.0098 718.7 56.1953 717.248 56.1953C715.145 56.1953 713.521 55.5573 712.375 54.2812C711.236 53.0052 710.666 51.1921 710.666 48.8418C710.666 47.3704 710.939 46.0814 711.486 44.9746C712.04 43.8678 712.834 43.015 713.869 42.416C714.911 41.8171 716.135 41.5176 717.541 41.5176C719.038 41.5176 720.347 41.791 721.467 42.3379L720.764 43.7637C719.683 43.2559 718.602 43.002 717.521 43.002ZM733.02 50.6387C733.02 52.3835 732.58 53.7474 731.701 54.7305C730.822 55.707 729.608 56.1953 728.059 56.1953C727.102 56.1953 726.252 55.9707 725.51 55.5215C724.768 55.0723 724.195 54.4277 723.791 53.5879C723.387 52.748 723.186 51.765 723.186 50.6387C723.186 48.8939 723.622 47.5365 724.494 46.5664C725.367 45.5898 726.577 45.1016 728.127 45.1016C729.624 45.1016 730.812 45.5996 731.691 46.5957C732.577 47.5918 733.02 48.9395 733.02 50.6387ZM724.865 50.6387C724.865 52.0059 725.139 53.0475 725.686 53.7637C726.232 54.4798 727.036 54.8379 728.098 54.8379C729.159 54.8379 729.963 54.4831 730.51 53.7734C731.063 53.0573 731.34 52.0124 731.34 50.6387C731.34 49.278 731.063 48.2461 730.51 47.543C729.963 46.8333 729.152 46.4785 728.078 46.4785C727.017 46.4785 726.216 46.8268 725.676 47.5234C725.135 48.2201 724.865 49.2585 724.865 50.6387ZM743.195 56V49.0762C743.195 48.2038 742.997 47.5527 742.6 47.123C742.202 46.6934 741.581 46.4785 740.734 46.4785C739.615 46.4785 738.794 46.7812 738.273 47.3867C737.753 47.9922 737.492 48.9915 737.492 50.3848V56H735.871V45.2969H737.189L737.453 46.7617H737.531C737.863 46.2344 738.329 45.8275 738.928 45.541C739.527 45.248 740.194 45.1016 740.93 45.1016C742.219 45.1016 743.189 45.4141 743.84 46.0391C744.491 46.6576 744.816 47.6504 744.816 49.0176V56H743.195ZM755.48 56V49.0762C755.48 48.2038 755.282 47.5527 754.885 47.123C754.488 46.6934 753.866 46.4785 753.02 46.4785C751.9 46.4785 751.079 46.7812 750.559 47.3867C750.038 47.9922 749.777 48.9915 749.777 50.3848V56H748.156V45.2969H749.475L749.738 46.7617H749.816C750.148 46.2344 750.614 45.8275 751.213 45.541C751.812 45.248 752.479 45.1016 753.215 45.1016C754.504 45.1016 755.474 45.4141 756.125 46.0391C756.776 46.6576 757.102 47.6504 757.102 49.0176V56H755.48ZM764.963 56.1953C763.381 56.1953 762.131 55.7135 761.213 54.75C760.301 53.7865 759.846 52.4486 759.846 50.7363C759.846 49.0111 760.269 47.6406 761.115 46.625C761.968 45.6094 763.111 45.1016 764.543 45.1016C765.884 45.1016 766.945 45.5443 767.727 46.4297C768.508 47.3086 768.898 48.4707 768.898 49.916V50.9414H761.525C761.558 52.1979 761.874 53.1517 762.473 53.8027C763.078 54.4538 763.928 54.7793 765.021 54.7793C766.174 54.7793 767.313 54.5384 768.439 54.0566V55.502C767.867 55.7493 767.323 55.9251 766.809 56.0293C766.301 56.14 765.686 56.1953 764.963 56.1953ZM764.523 46.459C763.664 46.459 762.977 46.7389 762.463 47.2988C761.955 47.8587 761.656 48.6335 761.564 49.623H767.16C767.16 48.6009 766.932 47.8197 766.477 47.2793C766.021 46.7324 765.37 46.459 764.523 46.459ZM775.949 56.1953C774.4 56.1953 773.199 55.7201 772.346 54.7695C771.499 53.8125 771.076 52.4616 771.076 50.7168C771.076 48.9264 771.506 47.543 772.365 46.5664C773.231 45.5898 774.462 45.1016 776.057 45.1016C776.571 45.1016 777.085 45.1569 777.6 45.2676C778.114 45.3783 778.518 45.5085 778.811 45.6582L778.312 47.0352C777.954 46.8919 777.564 46.7747 777.141 46.6836C776.717 46.5859 776.343 46.5371 776.018 46.5371C773.843 46.5371 772.756 47.9238 772.756 50.6973C772.756 52.0124 773.02 53.0215 773.547 53.7246C774.081 54.4277 774.868 54.7793 775.91 54.7793C776.802 54.7793 777.717 54.5872 778.654 54.2031V55.6387C777.938 56.0098 777.036 56.1953 775.949 56.1953ZM784.66 54.8574C784.947 54.8574 785.223 54.8379 785.49 54.7988C785.757 54.7533 785.969 54.7077 786.125 54.6621V55.9023C785.949 55.987 785.689 56.0553 785.344 56.1074C785.005 56.166 784.699 56.1953 784.426 56.1953C782.355 56.1953 781.32 55.1048 781.32 52.9238V46.5566H779.787V45.7754L781.32 45.1016L782.004 42.8164H782.941V45.2969H786.047V46.5566H782.941V52.8555C782.941 53.5 783.094 53.9948 783.4 54.3398C783.706 54.6849 784.126 54.8574 784.66 54.8574Z" fill="#464646"/>
<path d="M803.716 47.7891L798.716 42.7891C798.623 42.6958 798.512 42.6219 798.39 42.5714C798.268 42.521 798.138 42.495 798.006 42.495C797.739 42.495 797.484 42.6008 797.296 42.7891C797.203 42.8823 797.129 42.993 797.078 43.1148C797.028 43.2367 797.002 43.3672 797.002 43.4991C797.002 43.7654 797.107 44.0208 797.296 44.2091L801.596 48.4991L797.296 52.7891C797.202 52.8821 797.128 52.9927 797.077 53.1145C797.026 53.2364 797 53.3671 797 53.4991C797 53.6311 797.026 53.7618 797.077 53.8837C797.128 54.0055 797.202 54.1161 797.296 54.2091C797.389 54.3028 797.499 54.3772 797.621 54.428C797.743 54.4787 797.874 54.5049 798.006 54.5049C798.138 54.5049 798.269 54.4787 798.39 54.428C798.512 54.3772 798.623 54.3028 798.716 54.2091L803.716 49.2091C803.81 49.1161 803.884 49.0055 803.935 48.8837C803.985 48.7618 804.012 48.6311 804.012 48.4991C804.012 48.3671 803.985 48.2364 803.935 48.1145C803.884 47.9927 803.81 47.8821 803.716 47.7891Z" fill="#FE7563"/>
<rect x="1203.5" y="24.5" width="211" height="43" rx="21.5" stroke="#464646"/>
<path fill-rule="evenodd" clip-rule="evenodd" d="M1229.5 36.4457C1228.14 36.4458 1226.81 36.77 1225.6 37.3914C1224.4 38.0127 1223.36 38.9131 1222.57 40.0174C1221.79 41.1218 1221.28 42.398 1221.09 43.7397C1220.89 45.0814 1221.03 46.4496 1221.47 47.7303C1221.91 49.0109 1222.66 50.1667 1223.64 51.1014C1224.62 52.0361 1225.81 52.7225 1227.11 53.1033C1228.41 53.4841 1229.79 53.5483 1231.12 53.2906C1232.45 53.0329 1233.7 52.4606 1234.76 51.6217L1238.41 55.2737C1238.6 55.4558 1238.85 55.5566 1239.12 55.5544C1239.38 55.5521 1239.63 55.4469 1239.82 55.2615C1240 55.0761 1240.11 54.8253 1240.11 54.5631C1240.11 54.3009 1240.01 54.0483 1239.83 53.8597L1236.18 50.2077C1237.16 48.9543 1237.78 47.4481 1237.95 45.8614C1238.12 44.2747 1237.84 42.6717 1237.15 41.2358C1236.45 39.7998 1235.36 38.589 1234.01 37.7419C1232.66 36.8948 1231.1 36.4456 1229.5 36.4457ZM1223 44.9457C1223 43.2218 1223.68 41.5685 1224.9 40.3495C1226.12 39.1305 1227.78 38.4457 1229.5 38.4457C1231.22 38.4457 1232.88 39.1305 1234.1 40.3495C1235.31 41.5685 1236 43.2218 1236 44.9457C1236 46.6696 1235.31 48.3229 1234.1 49.5419C1232.88 50.7609 1231.22 51.4457 1229.5 51.4457C1227.78 51.4457 1226.12 50.7609 1224.9 49.5419C1223.68 48.3229 1223 46.6696 1223 44.9457Z" fill="#464646"/>
<path d="M1260.52 49.6133C1260.52 50.4596 1260.31 51.1888 1259.9 51.8008C1259.48 52.4128 1258.89 52.8815 1258.12 53.207C1257.35 53.5326 1256.43 53.6953 1255.36 53.6953C1254.84 53.6953 1254.34 53.666 1253.87 53.6074C1253.39 53.5488 1252.95 53.4642 1252.52 53.3535C1252.11 53.2363 1251.72 53.0964 1251.38 52.9336V50.7266C1251.96 50.9805 1252.61 51.2116 1253.32 51.4199C1254.04 51.6217 1254.77 51.7227 1255.51 51.7227C1256.12 51.7227 1256.62 51.6445 1257.01 51.4883C1257.42 51.3255 1257.72 51.0977 1257.91 50.8047C1258.11 50.5052 1258.21 50.1569 1258.21 49.7598C1258.21 49.3366 1258.09 48.9785 1257.86 48.6855C1257.64 48.3926 1257.29 48.1257 1256.83 47.8848C1256.37 47.6374 1255.8 47.3737 1255.11 47.0938C1254.64 46.9049 1254.19 46.6901 1253.76 46.4492C1253.34 46.2083 1252.96 45.9251 1252.63 45.5996C1252.3 45.2741 1252.03 44.89 1251.84 44.4473C1251.65 43.998 1251.56 43.4707 1251.56 42.8652C1251.56 42.0579 1251.75 41.3678 1252.13 40.7949C1252.52 40.222 1253.07 39.7826 1253.77 39.4766C1254.48 39.1706 1255.31 39.0176 1256.25 39.0176C1257 39.0176 1257.7 39.0957 1258.36 39.252C1259.03 39.4082 1259.68 39.6296 1260.32 39.916L1259.57 41.8008C1258.99 41.5599 1258.42 41.3678 1257.86 41.2246C1257.32 41.0814 1256.76 41.0098 1256.18 41.0098C1255.69 41.0098 1255.27 41.0846 1254.92 41.2344C1254.58 41.3841 1254.32 41.5957 1254.13 41.8691C1253.96 42.1361 1253.87 42.4551 1253.87 42.8262C1253.87 43.2428 1253.97 43.5944 1254.17 43.8809C1254.38 44.1608 1254.7 44.418 1255.13 44.6523C1255.57 44.8867 1256.13 45.1471 1256.81 45.4336C1257.6 45.7591 1258.26 46.1009 1258.81 46.459C1259.36 46.8171 1259.79 47.2467 1260.08 47.748C1260.37 48.2428 1260.52 48.8646 1260.52 49.6133ZM1267.35 42.4844C1268.31 42.4844 1269.14 42.6829 1269.83 43.0801C1270.52 43.4772 1271.05 44.0404 1271.42 44.7695C1271.79 45.4987 1271.98 46.3711 1271.98 47.3867V48.6172H1264.76C1264.78 49.6654 1265.06 50.4727 1265.6 51.0391C1266.14 51.6055 1266.89 51.8887 1267.86 51.8887C1268.55 51.8887 1269.17 51.8236 1269.72 51.6934C1270.27 51.5566 1270.84 51.3581 1271.43 51.0977V52.9629C1270.89 53.2168 1270.34 53.4023 1269.78 53.5195C1269.22 53.6367 1268.55 53.6953 1267.77 53.6953C1266.7 53.6953 1265.77 53.4902 1264.96 53.0801C1264.16 52.6634 1263.53 52.0449 1263.08 51.2246C1262.63 50.4043 1262.4 49.3854 1262.4 48.168C1262.4 46.957 1262.61 45.9284 1263.02 45.082C1263.43 44.2357 1264.01 43.5911 1264.75 43.1484C1265.49 42.7057 1266.36 42.4844 1267.35 42.4844ZM1267.35 44.2129C1266.62 44.2129 1266.04 44.4473 1265.59 44.916C1265.15 45.3848 1264.89 46.0716 1264.81 46.9766H1269.73C1269.72 46.4362 1269.63 45.9577 1269.46 45.541C1269.29 45.1243 1269.03 44.7988 1268.67 44.5645C1268.33 44.3301 1267.89 44.2129 1267.35 44.2129ZM1278.8 42.4844C1280.17 42.4844 1281.2 42.7871 1281.9 43.3926C1282.6 43.998 1282.95 44.9421 1282.95 46.2246V53.5H1281.32L1280.88 51.9668H1280.8C1280.5 52.3574 1280.18 52.6797 1279.86 52.9336C1279.53 53.1875 1279.15 53.3763 1278.72 53.5C1278.3 53.6302 1277.78 53.6953 1277.17 53.6953C1276.53 53.6953 1275.95 53.5781 1275.44 53.3438C1274.93 53.1029 1274.53 52.7383 1274.24 52.25C1273.95 51.7617 1273.8 51.1432 1273.8 50.3945C1273.8 49.2812 1274.21 48.4447 1275.04 47.8848C1275.87 47.3249 1277.13 47.0156 1278.81 46.957L1280.69 46.8887V46.3223C1280.69 45.5736 1280.51 45.0397 1280.16 44.7207C1279.81 44.4017 1279.33 44.2422 1278.69 44.2422C1278.15 44.2422 1277.63 44.3203 1277.12 44.4766C1276.61 44.6328 1276.12 44.8249 1275.64 45.0527L1274.9 43.4316C1275.42 43.1517 1276.02 42.9238 1276.69 42.748C1277.37 42.5723 1278.07 42.4844 1278.8 42.4844ZM1280.68 48.334L1279.28 48.3828C1278.13 48.4219 1277.33 48.6172 1276.87 48.9688C1276.41 49.3203 1276.17 49.8021 1276.17 50.4141C1276.17 50.9479 1276.33 51.3385 1276.65 51.5859C1276.97 51.8268 1277.39 51.9473 1277.91 51.9473C1278.71 51.9473 1279.36 51.7227 1279.89 51.2734C1280.41 50.8177 1280.68 50.1504 1280.68 49.2715V48.334ZM1291.64 42.4844C1291.83 42.4844 1292.02 42.4941 1292.24 42.5137C1292.45 42.5332 1292.64 42.5592 1292.8 42.5918L1292.58 44.7402C1292.44 44.7012 1292.27 44.6719 1292.07 44.6523C1291.88 44.6328 1291.7 44.623 1291.55 44.623C1291.14 44.623 1290.74 44.6914 1290.37 44.8281C1290 44.9583 1289.67 45.1602 1289.39 45.4336C1289.1 45.7005 1288.88 46.0358 1288.71 46.4395C1288.55 46.8431 1288.47 47.3118 1288.47 47.8457V53.5H1286.16V42.6895H1287.96L1288.27 44.5938H1288.38C1288.6 44.2096 1288.86 43.8581 1289.18 43.5391C1289.5 43.2201 1289.87 42.9661 1290.28 42.7773C1290.69 42.582 1291.15 42.4844 1291.64 42.4844ZM1299.15 53.6953C1298.13 53.6953 1297.25 53.4967 1296.5 53.0996C1295.75 52.7025 1295.17 52.0938 1294.77 51.2734C1294.36 50.4531 1294.16 49.4115 1294.16 48.1484C1294.16 46.8333 1294.38 45.7591 1294.83 44.9258C1295.27 44.0924 1295.88 43.4772 1296.66 43.0801C1297.45 42.6829 1298.35 42.4844 1299.37 42.4844C1300.01 42.4844 1300.59 42.5495 1301.12 42.6797C1301.64 42.8034 1302.09 42.9564 1302.45 43.1387L1301.77 44.9746C1301.37 44.8118 1300.97 44.6751 1300.55 44.5645C1300.13 44.4538 1299.73 44.3984 1299.35 44.3984C1298.72 44.3984 1298.19 44.5384 1297.77 44.8184C1297.35 45.0983 1297.04 45.515 1296.83 46.0684C1296.63 46.6217 1296.53 47.3086 1296.53 48.1289C1296.53 48.9232 1296.63 49.5938 1296.84 50.1406C1297.05 50.681 1297.36 51.0911 1297.77 51.3711C1298.18 51.6445 1298.68 51.7812 1299.28 51.7812C1299.87 51.7812 1300.4 51.7096 1300.87 51.5664C1301.34 51.4232 1301.78 51.2376 1302.2 51.0098V53.002C1301.79 53.2363 1301.35 53.4089 1300.88 53.5195C1300.41 53.6367 1299.84 53.6953 1299.15 53.6953ZM1307.03 38.3047V42.123C1307.03 42.5202 1307.02 42.9076 1306.99 43.2852C1306.98 43.6628 1306.95 43.9557 1306.93 44.1641H1307.05C1307.28 43.7865 1307.56 43.4772 1307.89 43.2363C1308.23 42.9889 1308.6 42.8034 1309.01 42.6797C1309.42 42.556 1309.87 42.4941 1310.33 42.4941C1311.16 42.4941 1311.86 42.6341 1312.44 42.9141C1313.02 43.1875 1313.47 43.6139 1313.77 44.1934C1314.08 44.7728 1314.24 45.5247 1314.24 46.4492V53.5H1311.95V46.8789C1311.95 46.0391 1311.77 45.4108 1311.43 44.9941C1311.08 44.571 1310.55 44.3594 1309.83 44.3594C1309.13 44.3594 1308.58 44.5059 1308.17 44.7988C1307.76 45.0853 1307.47 45.5117 1307.3 46.0781C1307.12 46.638 1307.03 47.3216 1307.03 48.1289V53.5H1304.74V38.3047H1307.03Z" fill="#464646"/>
</g>
<defs>
<clipPath id="clip0_423_994">
<rect width="1440" height="92" fill="white"/>
</clipPath>
</defs>
</svg>
